<svg width="42" height="57" viewBox="0 0 42 57" fill="none" xmlns="http://www.w3.org/2000/svg">
<g opacity="0.5">
<path opacity="0.07" d="M0 0H42V57H0V0Z" fill="#151816"/>
<path opacity="0.7" d="M0 28H42V57H0V28Z" fill="#151816"/>
<path d="M28.4225 54.4154H27.9155V51.9752L27.1309 52.2634V51.8195L28.3909 51.3525H28.4225V54.4154Z" fill="#C0C9B6"/>
<path d="M25.0977 54.112C25.0977 54.0153 25.1285 53.9325 25.1902 53.8638C25.2533 53.7951 25.3438 53.7607 25.4616 53.7607C25.5766 53.7607 25.6663 53.7951 25.7308 53.8638C25.7954 53.9311 25.8276 54.0139 25.8276 54.112C25.8276 54.2102 25.7946 54.2923 25.7287 54.3582C25.6642 54.4241 25.5752 54.457 25.4616 54.457C25.3466 54.457 25.2568 54.4241 25.1923 54.3582C25.1292 54.2908 25.0977 54.2088 25.0977 54.112Z" fill="#C0C9B6"/>
<path d="M22.6026 54.4154L21.6602 51.3525H22.2134L22.7961 53.473L22.8466 53.656L22.8992 53.4709L23.4861 51.3525H24.0372L23.0948 54.4154H22.6026Z" fill="#C0C9B6"/>
<path d="M21.0858 53.0417H19.8195V53.9989H21.2983V54.4154H19.3125V51.3525H21.2878V51.7712H19.8195V52.6336H21.0858V53.0417Z" fill="#C0C9B6"/>
<path d="M17.3359 54.112C17.3359 54.0153 17.3668 53.9325 17.4285 53.8638C17.4916 53.7951 17.5821 53.7607 17.6999 53.7607C17.8149 53.7607 17.9046 53.7951 17.9691 53.8638C18.0336 53.9311 18.0659 54.0139 18.0659 54.112C18.0659 54.2102 18.0329 54.2923 17.967 54.3582C17.9025 54.4241 17.8135 54.457 17.6999 54.457C17.5849 54.457 17.4951 54.4241 17.4306 54.3582C17.3675 54.2908 17.3359 54.2088 17.3359 54.112Z" fill="#C0C9B6"/>
<path d="M14.5307 54.0001C14.7046 54.0001 14.8526 53.9804 14.9746 53.9412C15.0966 53.9019 15.1968 53.8458 15.2754 53.7729C15.3595 53.693 15.4212 53.6018 15.4605 53.4994C15.4998 53.3956 15.525 53.2842 15.5362 53.1649V53.1544C15.5054 53.1895 15.4696 53.2224 15.4289 53.2533C15.3897 53.2827 15.3462 53.3087 15.2985 53.3311C15.248 53.355 15.1919 53.3739 15.1302 53.3879C15.0699 53.402 15.0033 53.409 14.9304 53.409C14.7817 53.409 14.652 53.3809 14.5412 53.3248C14.4318 53.2687 14.3407 53.1937 14.2678 53.0997C14.1934 53.0044 14.138 52.895 14.1016 52.7716C14.0651 52.6482 14.0469 52.5184 14.0469 52.3824C14.0469 52.2352 14.0686 52.097 14.1121 51.968C14.157 51.8376 14.2215 51.7233 14.3056 51.6251C14.3898 51.5283 14.4928 51.4519 14.6148 51.3958C14.7383 51.3383 14.8785 51.3096 15.0356 51.3096C15.194 51.3096 15.3343 51.3397 15.4563 51.4C15.5797 51.4603 15.6842 51.5424 15.7697 51.6461C15.8595 51.7583 15.9275 51.8944 15.9738 52.0542C16.0201 52.2127 16.0432 52.3796 16.0432 52.5549V52.7316C16.0432 52.9728 16.0151 53.2028 15.959 53.4216C15.903 53.6404 15.8041 53.8318 15.6624 53.9959C15.5474 54.1305 15.396 54.2364 15.2081 54.3135C15.0215 54.3906 14.7965 54.4292 14.5328 54.4292H14.4907V54.0001H14.5307ZM15.0377 53.0114C15.0966 53.0114 15.152 53.0023 15.2039 52.984C15.2571 52.9658 15.3055 52.9399 15.349 52.9062C15.3925 52.8739 15.4303 52.8361 15.4626 52.7926C15.4963 52.7477 15.5236 52.6993 15.5446 52.6475V52.4729C15.5446 52.3509 15.5306 52.2429 15.5026 52.1489C15.4759 52.0549 15.4402 51.9764 15.3953 51.9133C15.349 51.8502 15.295 51.8025 15.2333 51.7703C15.1716 51.7366 15.1057 51.7198 15.0356 51.7198C14.957 51.7198 14.8869 51.7373 14.8252 51.7724C14.7649 51.806 14.7144 51.8523 14.6737 51.9112C14.6317 51.9701 14.5994 52.0395 14.577 52.1195C14.5559 52.198 14.5454 52.2807 14.5454 52.3677C14.5454 52.4518 14.5552 52.5325 14.5749 52.6096C14.5945 52.6867 14.6254 52.7554 14.6674 52.8157C14.7081 52.8747 14.7586 52.9223 14.8189 52.9588C14.8806 52.9939 14.9535 53.0114 15.0377 53.0114Z" fill="#C0C9B6"/>
<path d="M12.1641 54.112C12.1641 54.0153 12.1949 53.9325 12.2566 53.8638C12.3197 53.7951 12.4102 53.7607 12.528 53.7607C12.643 53.7607 12.7327 53.7951 12.7972 53.8638C12.8618 53.9311 12.894 54.0139 12.894 54.112C12.894 54.2102 12.8611 54.2923 12.7951 54.3582C12.7306 54.4241 12.6416 54.457 12.528 54.457C12.413 54.457 12.3232 54.4241 12.2587 54.3582C12.1956 54.2908 12.1641 54.2088 12.1641 54.112Z" fill="#C0C9B6"/>
<path d="M10.923 51.6344L9.69872 54.4154H9.16861L10.3929 51.7733H8.80469V51.3525H10.923V51.6344Z" fill="#C0C9B6"/>
<path d="M8.32399 53.2471C8.32399 53.4435 8.30085 53.6174 8.25457 53.7688C8.2097 53.9189 8.14448 54.0444 8.05894 54.1454C7.97479 54.2492 7.87102 54.3277 7.7476 54.381C7.6256 54.4329 7.48676 54.4588 7.33109 54.4588C7.17683 54.4588 7.03799 54.4329 6.91458 54.381C6.79117 54.3277 6.68669 54.2492 6.60114 54.1454C6.51419 54.0444 6.44758 53.9189 6.4013 53.7688C6.35642 53.6174 6.33398 53.4435 6.33398 53.2471V52.5214C6.33398 52.3251 6.35642 52.1519 6.4013 52.0018C6.44758 51.8503 6.51349 51.7227 6.59904 51.619C6.68458 51.5166 6.78836 51.4394 6.91037 51.3876C7.03378 51.3343 7.17262 51.3076 7.32688 51.3076C7.48255 51.3076 7.62139 51.3343 7.7434 51.3876C7.86681 51.4394 7.97199 51.5166 8.05894 51.619C8.14308 51.7227 8.20829 51.8503 8.25457 52.0018C8.30085 52.1519 8.32399 52.3251 8.32399 52.5214V53.2471ZM6.83885 53.0683L7.81282 52.33C7.80721 52.2206 7.79178 52.1259 7.76654 52.046C7.7427 51.966 7.70834 51.9008 7.66346 51.8503C7.62419 51.8055 7.57581 51.7718 7.51831 51.7494C7.46222 51.7269 7.39841 51.7157 7.32688 51.7157C7.24975 51.7157 7.18174 51.729 7.12283 51.7557C7.06393 51.7823 7.01485 51.8216 6.97558 51.8735C6.9293 51.9324 6.89494 52.0088 6.87251 52.1028C6.85007 52.1953 6.83885 52.3047 6.83885 52.4309V52.8432C6.83885 52.8965 6.83885 52.9372 6.83885 52.9653C6.83885 52.9933 6.83885 53.0277 6.83885 53.0683ZM7.81702 53.3313V52.9442C7.81702 52.9092 7.81702 52.8727 7.81702 52.8348C7.81702 52.797 7.81702 52.7577 7.81702 52.717L6.84306 53.4512C6.85007 53.548 6.86479 53.6335 6.88723 53.7078C6.91107 53.7822 6.94263 53.8439 6.98189 53.8929C7.02116 53.9462 7.06954 53.9862 7.12704 54.0128C7.18594 54.0395 7.25396 54.0528 7.33109 54.0528C7.40682 54.0528 7.47344 54.0402 7.53093 54.015C7.58843 53.9883 7.63752 53.9497 7.67819 53.8993C7.72447 53.8404 7.75882 53.7632 7.78126 53.6679C7.8051 53.5725 7.81702 53.4603 7.81702 53.3313Z" fill="#C0C9B6"/>
<path d="M5.73805 53.2471C5.73805 53.4435 5.71491 53.6174 5.66864 53.7688C5.62376 53.9189 5.55855 54.0444 5.473 54.1454C5.38886 54.2492 5.28508 54.3277 5.16167 54.381C5.03966 54.4329 4.90082 54.4588 4.74515 54.4588C4.59089 54.4588 4.45205 54.4329 4.32864 54.381C4.20523 54.3277 4.10075 54.2492 4.0152 54.1454C3.92826 54.0444 3.86164 53.9189 3.81536 53.7688C3.77049 53.6174 3.74805 53.4435 3.74805 53.2471V52.5214C3.74805 52.3251 3.77049 52.1519 3.81536 52.0018C3.86164 51.8503 3.92755 51.7227 4.0131 51.619C4.09865 51.5166 4.20242 51.4394 4.32443 51.3876C4.44784 51.3343 4.58668 51.3076 4.74095 51.3076C4.89661 51.3076 5.03545 51.3343 5.15746 51.3876C5.28087 51.4394 5.38605 51.5166 5.473 51.619C5.55714 51.7227 5.62236 51.8503 5.66864 52.0018C5.71491 52.1519 5.73805 52.3251 5.73805 52.5214V53.2471ZM4.25291 53.0683L5.22688 52.33C5.22127 52.2206 5.20584 52.1259 5.1806 52.046C5.15676 51.966 5.1224 51.9008 5.07752 51.8503C5.03826 51.8055 4.98987 51.7718 4.93237 51.7494C4.87628 51.7269 4.81247 51.7157 4.74095 51.7157C4.66381 51.7157 4.5958 51.729 4.5369 51.7557C4.478 51.7823 4.42891 51.8216 4.38965 51.8735C4.34337 51.9324 4.30901 52.0088 4.28657 52.1028C4.26413 52.1953 4.25291 52.3047 4.25291 52.4309V52.8432C4.25291 52.8965 4.25291 52.9372 4.25291 52.9653C4.25291 52.9933 4.25291 53.0277 4.25291 53.0683ZM5.23109 53.3313V52.9442C5.23109 52.9092 5.23109 52.8727 5.23109 52.8348C5.23109 52.797 5.23109 52.7577 5.23109 52.717L4.25712 53.4512C4.26413 53.548 4.27886 53.6335 4.30129 53.7078C4.32513 53.7822 4.35669 53.8439 4.39596 53.8929C4.43522 53.9462 4.48361 53.9862 4.5411 54.0128C4.60001 54.0395 4.66802 54.0528 4.74515 54.0528C4.82088 54.0528 4.8875 54.0402 4.945 54.015C5.00249 53.9883 5.05158 53.9497 5.09225 53.8993C5.13853 53.8404 5.17289 53.7632 5.19532 53.6679C5.21917 53.5725 5.23109 53.4603 5.23109 53.3313Z" fill="#C0C9B6"/>
</g>
</svg>
