<svg width="57" height="57" viewBox="0 0 57 57" fill="none" xmlns="http://www.w3.org/2000/svg">
<g opacity="0.5">
<path d="M34.5 13.5H31.5V16.5H34.5V13.5Z" fill="#151816"/>
<path d="M37.5 16.5H34.5V22.5H37.5V16.5Z" fill="#151816"/>
<path d="M31.5 19.5H28.5V22.5H31.5V19.5Z" fill="#151816"/>
<path d="M19.5 19.5H16.5V22.5H19.5V19.5Z" fill="#151816"/>
<path d="M16.5 13.5H13.5V16.5H16.5V13.5Z" fill="#151816"/>
<path d="M16.5 33H13.5V36H16.5V33Z" fill="#151816"/>
<path d="M22.5 16.5H16.5V19.5H22.5V16.5Z" fill="#151816"/>
<path d="M40.5 37.5H37.5V43.5H40.5V37.5Z" fill="#151816"/>
<path d="M34.5 40.5H31.5V43.5H34.5V40.5Z" fill="#151816"/>
<path d="M19.5 40.5H16.5V43.5H19.5V40.5Z" fill="#151816"/>
<path d="M22.5 37.5H16.5V40.5H22.5V37.5Z" fill="#151816"/>
<path d="M43.5 13.5H40.5V16.5H43.5V13.5Z" fill="#151816"/>
<path d="M43.5 33H40.5V36H43.5V33Z" fill="#151816"/>
<path d="M43.5 40.5H40.5V43.5H43.5V40.5Z" fill="#151816"/>
<path d="M43.5 22.5H37.5V25.5H43.5V22.5Z" fill="#151816"/>
<path d="M31.5 33H28.5V36H31.5V33Z" fill="#151816"/>
<path d="M28.5 27H25.5V33H28.5V27Z" fill="#151816"/>
<path opacity="0.2" d="M1 56V1H56V56H1Z" stroke="#151816" stroke-width="2" stroke-miterlimit="10"/>
<path d="M10.5 9V12" stroke="#151816" stroke-width="2" stroke-miterlimit="10"/>
<path d="M9 10.5H12" stroke="#151816" stroke-width="2" stroke-miterlimit="10"/>
<path d="M46.5 9V12" stroke="#151816" stroke-width="2" stroke-miterlimit="10"/>
<path d="M45 10.5H48" stroke="#151816" stroke-width="2" stroke-miterlimit="10"/>
<path d="M10.5 45V48" stroke="#151816" stroke-width="2" stroke-miterlimit="10"/>
<path d="M9 46.5H12" stroke="#151816" stroke-width="2" stroke-miterlimit="10"/>
<path d="M46.5 45V48" stroke="#151816" stroke-width="2" stroke-miterlimit="10"/>
<path d="M45 46.5H48" stroke="#151816" stroke-width="2" stroke-miterlimit="10"/>
</g>
</svg>
