<svg width="46" height="65" viewBox="0 0 46 65" fill="none" xmlns="http://www.w3.org/2000/svg">
<path fill-rule="evenodd" clip-rule="evenodd" d="M-402.001 392.621L141.878 -235.085L142.08 -235.051L-401.798 392.655L-402.001 392.621Z" fill="#8D8D8D"/>
<path fill-rule="evenodd" clip-rule="evenodd" d="M-398.02 391.193L145.858 -236.513L146.061 -236.479L-397.818 391.227L-398.02 391.193Z" fill="#8D8D8D"/>
<path fill-rule="evenodd" clip-rule="evenodd" d="M-394.04 389.766L149.839 -237.94L150.041 -237.905L-393.837 389.8L-394.04 389.766Z" fill="#8D8D8D"/>
<path fill-rule="evenodd" clip-rule="evenodd" d="M-390.059 388.338L153.819 -239.367L154.021 -239.333L-389.857 388.373L-390.059 388.338Z" fill="#8D8D8D"/>
<path fill-rule="evenodd" clip-rule="evenodd" d="M-386.077 386.911L157.801 -240.795L158.004 -240.761L-385.874 386.945L-386.077 386.911Z" fill="#8D8D8D"/>
<path fill-rule="evenodd" clip-rule="evenodd" d="M-382.096 385.483L161.782 -242.223L161.984 -242.188L-381.894 385.517L-382.096 385.483Z" fill="#8D8D8D"/>
<path fill-rule="evenodd" clip-rule="evenodd" d="M-378.116 384.055L165.762 -243.651L165.965 -243.616L-377.913 384.09L-378.116 384.055Z" fill="#8D8D8D"/>
<path fill-rule="evenodd" clip-rule="evenodd" d="M-374.137 382.628L169.741 -245.077L169.943 -245.043L-373.935 382.663L-374.137 382.628Z" fill="#8D8D8D"/>
<path fill-rule="evenodd" clip-rule="evenodd" d="M-370.155 381.201L173.723 -246.505L173.926 -246.471L-369.953 381.235L-370.155 381.201Z" fill="#8D8D8D"/>
<path fill-rule="evenodd" clip-rule="evenodd" d="M-366.176 379.773L177.702 -247.933L177.904 -247.898L-365.974 379.807L-366.176 379.773Z" fill="#8D8D8D"/>
<path fill-rule="evenodd" clip-rule="evenodd" d="M-362.198 378.346L181.68 -249.36L181.883 -249.325L-361.996 378.381L-362.198 378.346Z" fill="#8D8D8D"/>
<path fill-rule="evenodd" clip-rule="evenodd" d="M-358.217 376.918L185.661 -250.787L185.863 -250.753L-358.015 376.953L-358.217 376.918Z" fill="#8D8D8D"/>
<path fill-rule="evenodd" clip-rule="evenodd" d="M-354.237 375.491L189.641 -252.215L189.844 -252.181L-354.035 375.525L-354.237 375.491Z" fill="#8D8D8D"/>
<path fill-rule="evenodd" clip-rule="evenodd" d="M-350.257 374.064L193.622 -253.642L193.824 -253.607L-350.054 374.098L-350.257 374.064Z" fill="#8D8D8D"/>
<path fill-rule="evenodd" clip-rule="evenodd" d="M-346.276 372.636L197.602 -255.07L197.805 -255.035L-346.074 372.671L-346.276 372.636Z" fill="#8D8D8D"/>
<path fill-rule="evenodd" clip-rule="evenodd" d="M-342.296 371.208L201.583 -256.497L201.785 -256.463L-342.093 371.243L-342.296 371.208Z" fill="#8D8D8D"/>
<path fill-rule="evenodd" clip-rule="evenodd" d="M-338.313 369.781L205.565 -257.925L205.768 -257.891L-338.111 369.815L-338.313 369.781Z" fill="#8D8D8D"/>
<path fill-rule="evenodd" clip-rule="evenodd" d="M-334.337 368.354L209.542 -259.352L209.744 -259.317L-334.134 368.388L-334.337 368.354Z" fill="#8D8D8D"/>
<path fill-rule="evenodd" clip-rule="evenodd" d="M-330.352 366.925L213.526 -260.78L213.729 -260.746L-330.15 366.96L-330.352 366.925Z" fill="#8D8D8D"/>
<path fill-rule="evenodd" clip-rule="evenodd" d="M-326.374 365.498L217.505 -262.207L217.707 -262.173L-326.171 365.533L-326.374 365.498Z" fill="#8D8D8D"/>
<path fill-rule="evenodd" clip-rule="evenodd" d="M-322.395 364.072L221.483 -263.634L221.686 -263.6L-322.193 364.106L-322.395 364.072Z" fill="#8D8D8D"/>
<path fill-rule="evenodd" clip-rule="evenodd" d="M-318.415 362.644L225.464 -265.062L225.666 -265.027L-318.212 362.678L-318.415 362.644Z" fill="#8D8D8D"/>
<path fill-rule="evenodd" clip-rule="evenodd" d="M-314.434 361.216L229.444 -266.489L229.646 -266.455L-314.232 361.251L-314.434 361.216Z" fill="#8D8D8D"/>
<path fill-rule="evenodd" clip-rule="evenodd" d="M-310.454 359.789L233.425 -267.917L233.627 -267.883L-310.251 359.823L-310.454 359.789Z" fill="#8D8D8D"/>
<path fill-rule="evenodd" clip-rule="evenodd" d="M-306.473 358.362L237.405 -269.344L237.607 -269.31L-306.271 358.396L-306.473 358.362Z" fill="#8D8D8D"/>
<path fill-rule="evenodd" clip-rule="evenodd" d="M-302.493 356.934L241.385 -270.772L241.588 -270.737L-302.29 356.968L-302.493 356.934Z" fill="#8D8D8D"/>
<path fill-rule="evenodd" clip-rule="evenodd" d="M-298.512 355.506L245.366 -272.199L245.568 -272.165L-298.31 355.541L-298.512 355.506Z" fill="#8D8D8D"/>
<path fill-rule="evenodd" clip-rule="evenodd" d="M-294.53 354.079L249.348 -273.627L249.551 -273.593L-294.328 354.113L-294.53 354.079Z" fill="#8D8D8D"/>
<path fill-rule="evenodd" clip-rule="evenodd" d="M-290.55 352.651L253.329 -275.055L253.531 -275.021L-290.347 352.685L-290.55 352.651Z" fill="#8D8D8D"/>
<path fill-rule="evenodd" clip-rule="evenodd" d="M-286.573 351.225L257.305 -276.481L257.508 -276.446L-286.371 351.259L-286.573 351.225Z" fill="#8D8D8D"/>
<path fill-rule="evenodd" clip-rule="evenodd" d="M-282.591 349.796L261.288 -277.909L261.49 -277.875L-282.388 349.831L-282.591 349.796Z" fill="#8D8D8D"/>
<path fill-rule="evenodd" clip-rule="evenodd" d="M-278.612 348.37L265.266 -279.336L265.469 -279.302L-278.41 348.404L-278.612 348.37Z" fill="#8D8D8D"/>
<path fill-rule="evenodd" clip-rule="evenodd" d="M-274.632 346.942L269.247 -280.764L269.449 -280.729L-274.429 346.976L-274.632 346.942Z" fill="#8D8D8D"/>
<path fill-rule="evenodd" clip-rule="evenodd" d="M-270.651 345.514L273.227 -282.192L273.43 -282.157L-270.449 345.548L-270.651 345.514Z" fill="#8D8D8D"/>
<path fill-rule="evenodd" clip-rule="evenodd" d="M-266.671 344.086L277.208 -283.619L277.41 -283.585L-266.468 344.121L-266.671 344.086Z" fill="#8D8D8D"/>
<path fill-rule="evenodd" clip-rule="evenodd" d="M-262.69 342.66L281.188 -285.046L281.391 -285.012L-262.488 342.694L-262.69 342.66Z" fill="#8D8D8D"/>
<path fill-rule="evenodd" clip-rule="evenodd" d="M-258.71 341.232L285.169 -286.474L285.371 -286.439L-258.507 341.266L-258.71 341.232Z" fill="#8D8D8D"/>
<path fill-rule="evenodd" clip-rule="evenodd" d="M-254.729 339.804L289.149 -287.902L289.352 -287.867L-254.527 339.839L-254.729 339.804Z" fill="#8D8D8D"/>
<path fill-rule="evenodd" clip-rule="evenodd" d="M-250.749 338.376L293.13 -289.329L293.332 -289.295L-250.546 338.411L-250.749 338.376Z" fill="#8D8D8D"/>
<path fill-rule="evenodd" clip-rule="evenodd" d="M-246.77 336.95L297.108 -290.756L297.311 -290.722L-246.568 336.984L-246.77 336.95Z" fill="#8D8D8D"/>
<path fill-rule="evenodd" clip-rule="evenodd" d="M-242.79 335.523L301.089 -292.183L301.291 -292.148L-242.587 335.557L-242.79 335.523Z" fill="#8D8D8D"/>
<path fill-rule="evenodd" clip-rule="evenodd" d="M-238.807 334.094L305.071 -293.612L305.273 -293.577L-238.605 334.129L-238.807 334.094Z" fill="#8D8D8D"/>
<path fill-rule="evenodd" clip-rule="evenodd" d="M-234.829 332.667L309.05 -295.038L309.252 -295.004L-234.626 332.702L-234.829 332.667Z" fill="#8D8D8D"/>
<path fill-rule="evenodd" clip-rule="evenodd" d="M-230.848 331.24L313.03 -296.466L313.232 -296.432L-230.646 331.274L-230.848 331.24Z" fill="#8D8D8D"/>
<path fill-rule="evenodd" clip-rule="evenodd" d="M-226.868 329.812L317.01 -297.894L317.213 -297.859L-226.665 329.846L-226.868 329.812Z" fill="#8D8D8D"/>
<path fill-rule="evenodd" clip-rule="evenodd" d="M-222.887 328.384L320.991 -299.321L321.193 -299.287L-222.685 328.419L-222.887 328.384Z" fill="#8D8D8D"/>
<path fill-rule="evenodd" clip-rule="evenodd" d="M-218.907 326.957L324.971 -300.748L325.174 -300.714L-218.704 326.992L-218.907 326.957Z" fill="#8D8D8D"/>
<path fill-rule="evenodd" clip-rule="evenodd" d="M-214.926 325.53L328.952 -302.176L329.154 -302.142L-214.724 325.564L-214.926 325.53Z" fill="#8D8D8D"/>
<path fill-rule="evenodd" clip-rule="evenodd" d="M-210.946 324.102L332.932 -303.604L333.135 -303.569L-210.744 324.136L-210.946 324.102Z" fill="#8D8D8D"/>
<path fill-rule="evenodd" clip-rule="evenodd" d="M-206.967 322.675L336.911 -305.03L337.113 -304.996L-206.765 322.71L-206.967 322.675Z" fill="#8D8D8D"/>
<path fill-rule="evenodd" clip-rule="evenodd" d="M-202.985 321.248L340.893 -306.458L341.096 -306.424L-202.783 321.282L-202.985 321.248Z" fill="#8D8D8D"/>
<path fill-rule="evenodd" clip-rule="evenodd" d="M-199.007 319.821L344.872 -307.885L345.074 -307.851L-198.804 319.855L-199.007 319.821Z" fill="#8D8D8D"/>
<path fill-rule="evenodd" clip-rule="evenodd" d="M-195.026 318.393L348.852 -309.313L349.055 -309.278L-194.824 318.427L-195.026 318.393Z" fill="#8D8D8D"/>
<path fill-rule="evenodd" clip-rule="evenodd" d="M-191.046 316.965L352.833 -310.74L353.035 -310.706L-190.843 317L-191.046 316.965Z" fill="#8D8D8D"/>
<path fill-rule="evenodd" clip-rule="evenodd" d="M-187.065 315.538L356.813 -312.168L357.016 -312.134L-186.863 315.572L-187.065 315.538Z" fill="#8D8D8D"/>
<path fill-rule="evenodd" clip-rule="evenodd" d="M-183.085 314.11L360.794 -313.596L360.996 -313.562L-182.882 314.144L-183.085 314.11Z" fill="#8D8D8D"/>
<path fill-rule="evenodd" clip-rule="evenodd" d="M-179.104 312.682L364.774 -315.024L364.977 -314.989L-178.902 312.716L-179.104 312.682Z" fill="#8D8D8D"/>
<path fill-rule="evenodd" clip-rule="evenodd" d="M-175.124 311.255L368.755 -316.45L368.957 -316.416L-174.921 311.29L-175.124 311.255Z" fill="#8D8D8D"/>
<path fill-rule="evenodd" clip-rule="evenodd" d="M-171.143 309.828L372.735 -317.878L372.938 -317.844L-170.941 309.862L-171.143 309.828Z" fill="#8D8D8D"/>
<path fill-rule="evenodd" clip-rule="evenodd" d="M-167.165 308.401L376.714 -319.305L376.916 -319.271L-166.962 308.435L-167.165 308.401Z" fill="#8D8D8D"/>
<path fill-rule="evenodd" clip-rule="evenodd" d="M-163.182 306.972L380.696 -320.734L380.898 -320.699L-162.98 307.006L-163.182 306.972Z" fill="#8D8D8D"/>
<path fill-rule="evenodd" clip-rule="evenodd" d="M-159.204 305.545L384.675 -322.16L384.877 -322.126L-159.001 305.58L-159.204 305.545Z" fill="#8D8D8D"/>
<path fill-rule="evenodd" clip-rule="evenodd" d="M-155.223 304.119L388.655 -323.587L388.857 -323.553L-155.021 304.153L-155.223 304.119Z" fill="#8D8D8D"/>
<path fill-rule="evenodd" clip-rule="evenodd" d="M-151.245 302.691L392.633 -325.015L392.836 -324.98L-151.042 302.725L-151.245 302.691Z" fill="#8D8D8D"/>
<path fill-rule="evenodd" clip-rule="evenodd" d="M-147.264 301.263L396.614 -326.443L396.816 -326.408L-147.062 301.298L-147.264 301.263Z" fill="#8D8D8D"/>
<path fill-rule="evenodd" clip-rule="evenodd" d="M-143.282 299.835L400.596 -327.87L400.799 -327.836L-143.079 299.87L-143.282 299.835Z" fill="#8D8D8D"/>
<path fill-rule="evenodd" clip-rule="evenodd" d="M-139.301 298.408L404.577 -329.298L404.779 -329.264L-139.099 298.442L-139.301 298.408Z" fill="#8D8D8D"/>
<path fill-rule="evenodd" clip-rule="evenodd" d="M-135.321 296.98L408.557 -330.726L408.76 -330.691L-135.119 297.014L-135.321 296.98Z" fill="#8D8D8D"/>
<path fill-rule="evenodd" clip-rule="evenodd" d="M-131.341 295.553L412.538 -332.153L412.74 -332.118L-131.138 295.588L-131.341 295.553Z" fill="#8D8D8D"/>
<path fill-rule="evenodd" clip-rule="evenodd" d="M-127.36 294.125L416.518 -333.58L416.721 -333.546L-127.158 294.16L-127.36 294.125Z" fill="#8D8D8D"/>
<path fill-rule="evenodd" clip-rule="evenodd" d="M-123.38 292.698L420.499 -335.008L420.701 -334.974L-123.177 292.732L-123.38 292.698Z" fill="#8D8D8D"/>
<path fill-rule="evenodd" clip-rule="evenodd" d="M-119.401 291.271L424.477 -336.435L424.68 -336.4L-119.199 291.305L-119.401 291.271Z" fill="#8D8D8D"/>
<path fill-rule="evenodd" clip-rule="evenodd" d="M-115.421 289.843L428.458 -337.862L428.66 -337.828L-115.218 289.878L-115.421 289.843Z" fill="#8D8D8D"/>
<path fill-rule="evenodd" clip-rule="evenodd" d="M-111.44 288.415L432.438 -339.29L432.641 -339.256L-111.238 288.45L-111.44 288.415Z" fill="#8D8D8D"/>
<path fill-rule="evenodd" clip-rule="evenodd" d="M-107.462 286.989L436.417 -340.717L436.619 -340.683L-107.259 287.023L-107.462 286.989Z" fill="#8D8D8D"/>
<path fill-rule="evenodd" clip-rule="evenodd" d="M-103.481 285.561L440.397 -342.145L440.6 -342.11L-103.279 285.595L-103.481 285.561Z" fill="#8D8D8D"/>
<path fill-rule="evenodd" clip-rule="evenodd" d="M-99.5007 284.133L444.378 -343.572L444.58 -343.538L-99.2982 284.168L-99.5007 284.133Z" fill="#8D8D8D"/>
<path fill-rule="evenodd" clip-rule="evenodd" d="M-95.5183 282.706L448.36 -345L448.562 -344.966L-95.3158 282.74L-95.5183 282.706Z" fill="#8D8D8D"/>
</svg>
