<svg width="47" height="65" viewBox="0 0 47 65" fill="none" xmlns="http://www.w3.org/2000/svg">
<path fill-rule="evenodd" clip-rule="evenodd" d="M-542.137 546.628L1.74091 -81.0773L1.94336 -81.043L-541.935 546.663L-542.137 546.628Z" fill="#8D8D8D"/>
<path fill-rule="evenodd" clip-rule="evenodd" d="M-538.155 545.201L5.72333 -82.5051L5.92578 -82.4707L-537.953 545.235L-538.155 545.201Z" fill="#8D8D8D"/>
<path fill-rule="evenodd" clip-rule="evenodd" d="M-534.176 543.773L9.70185 -83.9328L9.9043 -83.8984L-533.974 543.807L-534.176 543.773Z" fill="#8D8D8D"/>
<path fill-rule="evenodd" clip-rule="evenodd" d="M-530.198 542.346L13.6804 -85.3596L13.8828 -85.3252L-529.996 542.381L-530.198 542.346Z" fill="#8D8D8D"/>
<path fill-rule="evenodd" clip-rule="evenodd" d="M-526.217 540.918L17.6608 -86.7873L17.8633 -86.7529L-526.015 540.953L-526.217 540.918Z" fill="#8D8D8D"/>
<path fill-rule="evenodd" clip-rule="evenodd" d="M-522.237 539.491L21.6413 -88.215L21.8438 -88.1807L-522.035 539.525L-522.237 539.491Z" fill="#8D8D8D"/>
<path fill-rule="evenodd" clip-rule="evenodd" d="M-518.257 538.064L25.6218 -89.6418L25.8242 -89.6074L-518.054 538.098L-518.257 538.064Z" fill="#8D8D8D"/>
<path fill-rule="evenodd" clip-rule="evenodd" d="M-514.276 536.636L29.6022 -91.0695L29.8047 -91.0352L-514.074 536.671L-514.276 536.636Z" fill="#8D8D8D"/>
<path fill-rule="evenodd" clip-rule="evenodd" d="M-510.296 535.208L33.5827 -92.4973L33.7852 -92.4629L-510.093 535.243L-510.296 535.208Z" fill="#8D8D8D"/>
<path fill-rule="evenodd" clip-rule="evenodd" d="M-506.313 533.781L37.5651 -93.925L37.7676 -93.8906L-506.111 533.815L-506.313 533.781Z" fill="#8D8D8D"/>
<path fill-rule="evenodd" clip-rule="evenodd" d="M-502.337 532.354L41.5417 -95.3517L41.7441 -95.3174L-502.134 532.388L-502.337 532.354Z" fill="#8D8D8D"/>
<path fill-rule="evenodd" clip-rule="evenodd" d="M-498.352 530.925L45.5261 -96.7805L45.7285 -96.7461L-498.15 530.96L-498.352 530.925Z" fill="#8D8D8D"/>
<path fill-rule="evenodd" clip-rule="evenodd" d="M-494.374 529.498L49.5046 -98.2072L49.707 -98.1729L-494.171 529.533L-494.374 529.498Z" fill="#8D8D8D"/>
<path fill-rule="evenodd" clip-rule="evenodd" d="M-490.395 528.072L53.4831 -99.634L53.6855 -99.5996L-490.193 528.106L-490.395 528.072Z" fill="#8D8D8D"/>
<path fill-rule="evenodd" clip-rule="evenodd" d="M-486.415 526.644L57.4636 -101.062L57.666 -101.027L-486.212 526.678L-486.415 526.644Z" fill="#8D8D8D"/>
<path fill-rule="evenodd" clip-rule="evenodd" d="M-482.434 525.216L61.444 -102.489L61.6465 -102.455L-482.232 525.251L-482.434 525.216Z" fill="#8D8D8D"/>
<path fill-rule="evenodd" clip-rule="evenodd" d="M-478.454 523.789L65.4245 -103.917L65.627 -103.883L-478.251 523.823L-478.454 523.789Z" fill="#8D8D8D"/>
<path fill-rule="evenodd" clip-rule="evenodd" d="M-474.473 522.362L69.405 -105.344L69.6074 -105.31L-474.271 522.396L-474.473 522.362Z" fill="#8D8D8D"/>
<path fill-rule="evenodd" clip-rule="evenodd" d="M-470.493 520.934L73.3854 -106.772L73.5879 -106.737L-470.29 520.968L-470.493 520.934Z" fill="#8D8D8D"/>
<path fill-rule="evenodd" clip-rule="evenodd" d="M-466.512 519.506L77.3659 -108.199L77.5684 -108.165L-466.31 519.541L-466.512 519.506Z" fill="#8D8D8D"/>
<path fill-rule="evenodd" clip-rule="evenodd" d="M-462.53 518.079L81.3483 -109.627L81.5508 -109.593L-462.328 518.113L-462.53 518.079Z" fill="#8D8D8D"/>
<path fill-rule="evenodd" clip-rule="evenodd" d="M-458.55 516.651L85.3288 -111.055L85.5312 -111.021L-458.347 516.685L-458.55 516.651Z" fill="#8D8D8D"/>
<path fill-rule="evenodd" clip-rule="evenodd" d="M-454.573 515.225L89.3054 -112.481L89.5078 -112.446L-454.371 515.259L-454.573 515.225Z" fill="#8D8D8D"/>
<path fill-rule="evenodd" clip-rule="evenodd" d="M-450.591 513.796L93.2878 -113.909L93.4902 -113.875L-450.388 513.831L-450.591 513.796Z" fill="#8D8D8D"/>
<path fill-rule="evenodd" clip-rule="evenodd" d="M-446.612 512.37L97.2663 -115.336L97.4688 -115.302L-446.41 512.404L-446.612 512.37Z" fill="#8D8D8D"/>
<path fill-rule="evenodd" clip-rule="evenodd" d="M-442.632 510.942L101.247 -116.764L101.449 -116.729L-442.429 510.976L-442.632 510.942Z" fill="#8D8D8D"/>
<path fill-rule="evenodd" clip-rule="evenodd" d="M-438.651 509.514L105.227 -118.192L105.43 -118.157L-438.449 509.548L-438.651 509.514Z" fill="#8D8D8D"/>
<path fill-rule="evenodd" clip-rule="evenodd" d="M-434.671 508.086L109.208 -119.619L109.41 -119.585L-434.468 508.121L-434.671 508.086Z" fill="#8D8D8D"/>
<path fill-rule="evenodd" clip-rule="evenodd" d="M-430.69 506.66L113.188 -121.046L113.391 -121.012L-430.488 506.694L-430.69 506.66Z" fill="#8D8D8D"/>
<path fill-rule="evenodd" clip-rule="evenodd" d="M-426.71 505.232L117.169 -122.474L117.371 -122.439L-426.507 505.266L-426.71 505.232Z" fill="#8D8D8D"/>
<path fill-rule="evenodd" clip-rule="evenodd" d="M-422.729 503.804L121.149 -123.902L121.352 -123.867L-422.527 503.839L-422.729 503.804Z" fill="#8D8D8D"/>
<path fill-rule="evenodd" clip-rule="evenodd" d="M-418.749 502.376L125.13 -125.329L125.332 -125.295L-418.546 502.411L-418.749 502.376Z" fill="#8D8D8D"/>
<path fill-rule="evenodd" clip-rule="evenodd" d="M-414.77 500.95L129.108 -126.756L129.311 -126.722L-414.568 500.984L-414.77 500.95Z" fill="#8D8D8D"/>
<path fill-rule="evenodd" clip-rule="evenodd" d="M-410.79 499.523L133.089 -128.183L133.291 -128.148L-410.587 499.557L-410.79 499.523Z" fill="#8D8D8D"/>
<path fill-rule="evenodd" clip-rule="evenodd" d="M-406.807 498.094L137.071 -129.612L137.273 -129.577L-406.605 498.129L-406.807 498.094Z" fill="#8D8D8D"/>
<path fill-rule="evenodd" clip-rule="evenodd" d="M-402.829 496.667L141.05 -131.038L141.252 -131.004L-402.626 496.702L-402.829 496.667Z" fill="#8D8D8D"/>
<path fill-rule="evenodd" clip-rule="evenodd" d="M-398.848 495.24L145.03 -132.466L145.232 -132.432L-398.646 495.274L-398.848 495.24Z" fill="#8D8D8D"/>
<path fill-rule="evenodd" clip-rule="evenodd" d="M-394.868 493.812L149.01 -133.894L149.213 -133.859L-394.665 493.846L-394.868 493.812Z" fill="#8D8D8D"/>
<path fill-rule="evenodd" clip-rule="evenodd" d="M-390.887 492.384L152.991 -135.321L153.193 -135.287L-390.685 492.419L-390.887 492.384Z" fill="#8D8D8D"/>
<path fill-rule="evenodd" clip-rule="evenodd" d="M-386.907 490.957L156.971 -136.748L157.174 -136.714L-386.704 490.992L-386.907 490.957Z" fill="#8D8D8D"/>
<path fill-rule="evenodd" clip-rule="evenodd" d="M-382.926 489.53L160.952 -138.176L161.154 -138.142L-382.724 489.564L-382.926 489.53Z" fill="#8D8D8D"/>
<path fill-rule="evenodd" clip-rule="evenodd" d="M-378.946 488.102L164.932 -139.604L165.135 -139.569L-378.744 488.136L-378.946 488.102Z" fill="#8D8D8D"/>
<path fill-rule="evenodd" clip-rule="evenodd" d="M-374.967 486.675L168.911 -141.03L169.113 -140.996L-374.765 486.71L-374.967 486.675Z" fill="#8D8D8D"/>
<path fill-rule="evenodd" clip-rule="evenodd" d="M-370.985 485.248L172.893 -142.458L173.096 -142.424L-370.783 485.282L-370.985 485.248Z" fill="#8D8D8D"/>
<path fill-rule="evenodd" clip-rule="evenodd" d="M-367.007 483.821L176.872 -143.885L177.074 -143.851L-366.804 483.855L-367.007 483.821Z" fill="#8D8D8D"/>
<path fill-rule="evenodd" clip-rule="evenodd" d="M-363.026 482.393L180.852 -145.313L181.055 -145.278L-362.824 482.427L-363.026 482.393Z" fill="#8D8D8D"/>
<path fill-rule="evenodd" clip-rule="evenodd" d="M-359.046 480.965L184.833 -146.74L185.035 -146.706L-358.843 481L-359.046 480.965Z" fill="#8D8D8D"/>
<path fill-rule="evenodd" clip-rule="evenodd" d="M-355.065 479.538L188.813 -148.168L189.016 -148.134L-354.863 479.572L-355.065 479.538Z" fill="#8D8D8D"/>
<path fill-rule="evenodd" clip-rule="evenodd" d="M-351.085 478.11L192.794 -149.596L192.996 -149.562L-350.882 478.144L-351.085 478.11Z" fill="#8D8D8D"/>
<path fill-rule="evenodd" clip-rule="evenodd" d="M-347.104 476.682L196.774 -151.024L196.977 -150.989L-346.902 476.716L-347.104 476.682Z" fill="#8D8D8D"/>
<path fill-rule="evenodd" clip-rule="evenodd" d="M-343.124 475.255L200.755 -152.45L200.957 -152.416L-342.921 475.29L-343.124 475.255Z" fill="#8D8D8D"/>
<path fill-rule="evenodd" clip-rule="evenodd" d="M-339.143 473.828L204.735 -153.878L204.938 -153.844L-338.941 473.862L-339.143 473.828Z" fill="#8D8D8D"/>
<path fill-rule="evenodd" clip-rule="evenodd" d="M-335.165 472.401L208.714 -155.305L208.916 -155.271L-334.962 472.435L-335.165 472.401Z" fill="#8D8D8D"/>
<path fill-rule="evenodd" clip-rule="evenodd" d="M-331.182 470.972L212.696 -156.734L212.898 -156.699L-330.98 471.006L-331.182 470.972Z" fill="#8D8D8D"/>
<path fill-rule="evenodd" clip-rule="evenodd" d="M-327.204 469.545L216.675 -158.16L216.877 -158.126L-327.001 469.58L-327.204 469.545Z" fill="#8D8D8D"/>
<path fill-rule="evenodd" clip-rule="evenodd" d="M-323.223 468.119L220.655 -159.587L220.857 -159.553L-323.021 468.153L-323.223 468.119Z" fill="#8D8D8D"/>
<path fill-rule="evenodd" clip-rule="evenodd" d="M-319.245 466.691L224.633 -161.015L224.836 -160.98L-319.042 466.725L-319.245 466.691Z" fill="#8D8D8D"/>
<path fill-rule="evenodd" clip-rule="evenodd" d="M-315.264 465.263L228.614 -162.443L228.816 -162.408L-315.062 465.298L-315.264 465.263Z" fill="#8D8D8D"/>
<path fill-rule="evenodd" clip-rule="evenodd" d="M-311.282 463.835L232.596 -163.87L232.799 -163.836L-311.079 463.87L-311.282 463.835Z" fill="#8D8D8D"/>
<path fill-rule="evenodd" clip-rule="evenodd" d="M-307.301 462.408L236.577 -165.298L236.779 -165.264L-307.099 462.442L-307.301 462.408Z" fill="#8D8D8D"/>
<path fill-rule="evenodd" clip-rule="evenodd" d="M-303.321 460.98L240.557 -166.726L240.76 -166.691L-303.119 461.014L-303.321 460.98Z" fill="#8D8D8D"/>
<path fill-rule="evenodd" clip-rule="evenodd" d="M-299.341 459.553L244.538 -168.153L244.74 -168.118L-299.138 459.588L-299.341 459.553Z" fill="#8D8D8D"/>
<path fill-rule="evenodd" clip-rule="evenodd" d="M-295.36 458.125L248.518 -169.58L248.721 -169.546L-295.158 458.16L-295.36 458.125Z" fill="#8D8D8D"/>
<path fill-rule="evenodd" clip-rule="evenodd" d="M-291.38 456.698L252.499 -171.008L252.701 -170.974L-291.177 456.732L-291.38 456.698Z" fill="#8D8D8D"/>
<path fill-rule="evenodd" clip-rule="evenodd" d="M-287.401 455.271L256.477 -172.435L256.68 -172.4L-287.199 455.305L-287.401 455.271Z" fill="#8D8D8D"/>
<path fill-rule="evenodd" clip-rule="evenodd" d="M-283.421 453.843L260.458 -173.862L260.66 -173.828L-283.218 453.878L-283.421 453.843Z" fill="#8D8D8D"/>
<path fill-rule="evenodd" clip-rule="evenodd" d="M-279.44 452.415L264.438 -175.29L264.641 -175.256L-279.238 452.45L-279.44 452.415Z" fill="#8D8D8D"/>
<path fill-rule="evenodd" clip-rule="evenodd" d="M-275.462 450.989L268.417 -176.717L268.619 -176.683L-275.259 451.023L-275.462 450.989Z" fill="#8D8D8D"/>
<path fill-rule="evenodd" clip-rule="evenodd" d="M-271.481 449.561L272.397 -178.145L272.6 -178.11L-271.279 449.595L-271.481 449.561Z" fill="#8D8D8D"/>
<path fill-rule="evenodd" clip-rule="evenodd" d="M-267.501 448.133L276.378 -179.572L276.58 -179.538L-267.298 448.168L-267.501 448.133Z" fill="#8D8D8D"/>
<path fill-rule="evenodd" clip-rule="evenodd" d="M-263.518 446.706L280.36 -181L280.562 -180.966L-263.316 446.74L-263.518 446.706Z" fill="#8D8D8D"/>
</svg>
