<svg width="46" height="65" viewBox="0 0 46 65" fill="none" xmlns="http://www.w3.org/2000/svg">
<path fill-rule="evenodd" clip-rule="evenodd" d="M-206 234.981L104.484 -119.014L104.6 -118.994L-205.885 235L-206 234.981Z" fill="#8D8D8D"/>
<path fill-rule="evenodd" clip-rule="evenodd" d="M-199.401 234.176L111.084 -119.818L111.199 -119.799L-199.285 234.195L-199.401 234.176Z" fill="#8D8D8D"/>
<path fill-rule="evenodd" clip-rule="evenodd" d="M-192.801 233.37L117.683 -120.624L117.799 -120.604L-192.686 233.39L-192.801 233.37Z" fill="#8D8D8D"/>
<path fill-rule="evenodd" clip-rule="evenodd" d="M-186.202 232.566L124.283 -121.429L124.398 -121.409L-186.086 232.585L-186.202 232.566Z" fill="#8D8D8D"/>
<path fill-rule="evenodd" clip-rule="evenodd" d="M-179.602 231.76L130.882 -122.234L130.998 -122.215L-179.486 231.779L-179.602 231.76Z" fill="#8D8D8D"/>
<path fill-rule="evenodd" clip-rule="evenodd" d="M-173.002 230.955L137.482 -123.039L137.598 -123.02L-172.887 230.975L-173.002 230.955Z" fill="#8D8D8D"/>
<path fill-rule="evenodd" clip-rule="evenodd" d="M-166.403 230.151L144.082 -123.844L144.197 -123.824L-166.287 230.17L-166.403 230.151Z" fill="#8D8D8D"/>
<path fill-rule="evenodd" clip-rule="evenodd" d="M-159.803 229.346L150.681 -124.648L150.797 -124.629L-159.688 229.365L-159.803 229.346Z" fill="#8D8D8D"/>
<path fill-rule="evenodd" clip-rule="evenodd" d="M-153.204 228.54L157.281 -125.454L157.396 -125.435L-153.088 228.56L-153.204 228.54Z" fill="#8D8D8D"/>
<path fill-rule="evenodd" clip-rule="evenodd" d="M-146.604 227.734L163.881 -126.26L163.996 -126.24L-146.488 227.754L-146.604 227.734Z" fill="#8D8D8D"/>
<path fill-rule="evenodd" clip-rule="evenodd" d="M-140.004 226.93L170.48 -127.064L170.596 -127.045L-139.889 226.949L-140.004 226.93Z" fill="#8D8D8D"/>
<path fill-rule="evenodd" clip-rule="evenodd" d="M-133.405 226.125L177.08 -127.869L177.195 -127.85L-133.289 226.144L-133.405 226.125Z" fill="#8D8D8D"/>
<path fill-rule="evenodd" clip-rule="evenodd" d="M-126.805 225.32L183.679 -128.674L183.795 -128.654L-126.69 225.34L-126.805 225.32Z" fill="#8D8D8D"/>
<path fill-rule="evenodd" clip-rule="evenodd" d="M-120.206 224.516L190.279 -129.478L190.395 -129.459L-120.09 224.535L-120.206 224.516Z" fill="#8D8D8D"/>
<path fill-rule="evenodd" clip-rule="evenodd" d="M-113.606 223.71L196.879 -130.284L196.994 -130.265L-113.49 223.729L-113.606 223.71Z" fill="#8D8D8D"/>
<path fill-rule="evenodd" clip-rule="evenodd" d="M-107.006 222.905L203.478 -131.089L203.594 -131.069L-106.891 222.925L-107.006 222.905Z" fill="#8D8D8D"/>
<path fill-rule="evenodd" clip-rule="evenodd" d="M-100.407 222.1L210.078 -131.894L210.193 -131.875L-100.291 222.119L-100.407 222.1Z" fill="#8D8D8D"/>
<path fill-rule="evenodd" clip-rule="evenodd" d="M-93.8071 221.295L216.677 -132.699L216.793 -132.68L-93.6915 221.314L-93.8071 221.295Z" fill="#8D8D8D"/>
<path fill-rule="evenodd" clip-rule="evenodd" d="M-87.2075 220.49L223.277 -133.504L223.393 -133.484L-87.0919 220.51L-87.2075 220.49Z" fill="#8D8D8D"/>
<path fill-rule="evenodd" clip-rule="evenodd" d="M-80.6079 219.686L229.877 -134.308L229.992 -134.289L-80.4923 219.705L-80.6079 219.686Z" fill="#8D8D8D"/>
<path fill-rule="evenodd" clip-rule="evenodd" d="M-74.0083 218.88L236.476 -135.114L236.592 -135.095L-73.8927 218.899L-74.0083 218.88Z" fill="#8D8D8D"/>
<path fill-rule="evenodd" clip-rule="evenodd" d="M-67.4087 218.075L243.076 -135.919L243.191 -135.899L-67.2931 218.095L-67.4087 218.075Z" fill="#8D8D8D"/>
<path fill-rule="evenodd" clip-rule="evenodd" d="M-60.8091 217.27L249.675 -136.724L249.791 -136.705L-60.6935 217.289L-60.8091 217.27Z" fill="#8D8D8D"/>
<path fill-rule="evenodd" clip-rule="evenodd" d="M-54.2095 216.465L256.275 -137.529L256.391 -137.51L-54.0939 216.484L-54.2095 216.465Z" fill="#8D8D8D"/>
<path fill-rule="evenodd" clip-rule="evenodd" d="M-47.6099 215.66L262.875 -138.334L262.99 -138.314L-47.4943 215.68L-47.6099 215.66Z" fill="#8D8D8D"/>
<path fill-rule="evenodd" clip-rule="evenodd" d="M-41.0102 214.856L269.474 -139.139L269.59 -139.119L-40.8947 214.875L-41.0102 214.856Z" fill="#8D8D8D"/>
<path fill-rule="evenodd" clip-rule="evenodd" d="M-34.4106 214.05L276.074 -139.944L276.189 -139.925L-34.2951 214.069L-34.4106 214.05Z" fill="#8D8D8D"/>
<path fill-rule="evenodd" clip-rule="evenodd" d="M-27.811 213.244L282.673 -140.75L282.789 -140.73L-27.6954 213.264L-27.811 213.244Z" fill="#8D8D8D"/>
<path fill-rule="evenodd" clip-rule="evenodd" d="M-21.2114 212.44L289.273 -141.555L289.389 -141.535L-21.0958 212.459L-21.2114 212.44Z" fill="#8D8D8D"/>
<path fill-rule="evenodd" clip-rule="evenodd" d="M-14.6118 211.635L295.873 -142.359L295.988 -142.34L-14.4962 211.654L-14.6118 211.635Z" fill="#8D8D8D"/>
<path fill-rule="evenodd" clip-rule="evenodd" d="M-8.01219 210.83L302.472 -143.164L302.588 -143.145L-7.89662 210.85L-8.01219 210.83Z" fill="#8D8D8D"/>
<path fill-rule="evenodd" clip-rule="evenodd" d="M-1.41258 210.026L309.072 -143.969L309.188 -143.949L-1.29701 210.045L-1.41258 210.026Z" fill="#8D8D8D"/>
<path fill-rule="evenodd" clip-rule="evenodd" d="M5.18702 209.22L315.672 -144.774L315.787 -144.755L5.3026 209.239L5.18702 209.22Z" fill="#8D8D8D"/>
<path fill-rule="evenodd" clip-rule="evenodd" d="M11.7866 208.415L322.271 -145.579L322.387 -145.56L11.9022 208.435L11.7866 208.415Z" fill="#8D8D8D"/>
<path fill-rule="evenodd" clip-rule="evenodd" d="M18.3862 207.609L328.871 -146.385L328.986 -146.365L18.5018 207.629L18.3862 207.609Z" fill="#8D8D8D"/>
<path fill-rule="evenodd" clip-rule="evenodd" d="M24.9859 206.805L335.47 -147.189L335.586 -147.17L25.1014 206.824L24.9859 206.805Z" fill="#8D8D8D"/>
<path fill-rule="evenodd" clip-rule="evenodd" d="M31.5855 206L342.07 -147.994L342.186 -147.975L31.701 206.019L31.5855 206Z" fill="#8D8D8D"/>
<path fill-rule="evenodd" clip-rule="evenodd" d="M38.1851 205.195L348.67 -148.799L348.785 -148.779L38.3006 205.215L38.1851 205.195Z" fill="#8D8D8D"/>
<path fill-rule="evenodd" clip-rule="evenodd" d="M44.7847 204.39L355.269 -149.604L355.385 -149.585L44.9003 204.409L44.7847 204.39Z" fill="#8D8D8D"/>
</svg>
