<svg width="43" height="15" viewBox="0 0 43 15" fill="none" xmlns="http://www.w3.org/2000/svg">
<path d="M25.6021 11.8285H23.6087V13.3494H25.9415V14.0017H22.8066V9.15625H25.9182V9.81517H23.6087V11.1829H25.6021V11.8285Z" fill="#151816"/>
<path d="M18.7754 9.15625H21.6573V9.8185H20.6091V13.3427H21.6573V14.0017H18.7754V13.3427H19.8004V9.8185H18.7754V9.15625Z" fill="#151816"/>
<path d="M41.7779 3.19423H42.3869V3.83651H41.7779V4.91475H40.9826V3.83651H38.8793L38.8594 3.35397L40.9559 0.0693359H41.7779V3.19423ZM39.678 3.19423H40.9826V1.13093L40.896 1.28734L39.678 3.19423Z" fill="#151816"/>
<path d="M35.8916 2.13278H36.3675C36.5073 2.13278 36.6293 2.11503 36.7336 2.07953C36.8378 2.04182 36.9244 1.98968 36.9931 1.92312C37.0619 1.85657 37.1129 1.77781 37.1462 1.68684C37.1817 1.59366 37.1995 1.49161 37.1995 1.38068C37.1995 1.14551 37.1373 0.964691 37.0131 0.838231C36.8911 0.709552 36.7058 0.645213 36.4573 0.645213C36.3486 0.645213 36.2477 0.661852 36.1545 0.695131C36.0635 0.726192 35.9837 0.771673 35.9149 0.831575C35.8483 0.891477 35.7962 0.963581 35.7585 1.04789C35.7208 1.13219 35.7019 1.22759 35.7019 1.33409H34.9065C34.9065 1.14329 34.9443 0.966909 35.0197 0.804952C35.0973 0.642994 35.2038 0.503223 35.3392 0.385637C35.4767 0.265833 35.6398 0.172652 35.8284 0.106094C36.017 0.0373179 36.2233 0.00292969 36.4474 0.00292969C36.6759 0.00292969 36.8855 0.0328807 37.0763 0.0927828C37.2671 0.150466 37.4302 0.236991 37.5655 0.352358C37.7009 0.467725 37.8062 0.611934 37.8817 0.784984C37.9571 0.955816 37.9948 1.15438 37.9948 1.38068C37.9948 1.47608 37.9804 1.57369 37.9516 1.67353C37.9227 1.77337 37.8784 1.86988 37.8184 1.96306C37.7608 2.05624 37.6864 2.14387 37.5955 2.22596C37.5067 2.30583 37.4014 2.3735 37.2793 2.42896C37.4258 2.47999 37.5489 2.54544 37.6487 2.62531C37.7486 2.70518 37.8295 2.79503 37.8917 2.89487C37.9538 2.99249 37.9982 3.09787 38.0248 3.21102C38.0514 3.32417 38.0647 3.43953 38.0647 3.55712C38.0647 3.78342 38.0237 3.98531 37.9416 4.1628C37.8595 4.34028 37.7452 4.49004 37.5988 4.61206C37.4546 4.73186 37.2838 4.82394 37.0863 4.88828C36.8889 4.9504 36.6759 4.98146 36.4474 4.98146C36.2366 4.98146 36.0358 4.95261 35.845 4.89493C35.6542 4.83725 35.4856 4.75183 35.3392 4.63868C35.195 4.52332 35.0796 4.38133 34.9931 4.21271C34.9065 4.04188 34.8633 3.84443 34.8633 3.62035H35.6586C35.6586 3.72684 35.6775 3.82557 35.7152 3.91653C35.7529 4.00527 35.8062 4.08182 35.875 4.14616C35.946 4.20828 36.0303 4.25709 36.1279 4.29258C36.2255 4.32808 36.3353 4.34583 36.4573 4.34583C36.7103 4.34583 36.9088 4.27927 37.053 4.14616C37.1995 4.01082 37.2727 3.81558 37.2727 3.56045C37.2727 3.42068 37.2516 3.30087 37.2094 3.20103C37.1673 3.09898 37.1063 3.01578 37.0264 2.95144C36.9488 2.88488 36.8545 2.83608 36.7435 2.80502C36.6326 2.77395 36.5073 2.75842 36.3675 2.75842H35.8916V2.13278Z" fill="#151816"/>
<path d="M34.0806 3.07067C34.0806 3.38349 34.044 3.6597 33.9708 3.89931C33.8998 4.1367 33.7966 4.33638 33.6613 4.49833C33.526 4.65807 33.3607 4.77899 33.1655 4.86107C32.9702 4.94316 32.7506 4.98421 32.5065 4.98421C32.2647 4.98421 32.0462 4.94316 31.8509 4.86107C31.6557 4.77899 31.4893 4.65807 31.3518 4.49833C31.2164 4.33638 31.111 4.1367 31.0356 3.89931C30.9624 3.6597 30.9258 3.38349 30.9258 3.07067V1.91256C30.9258 1.59974 30.9624 1.32463 31.0356 1.08724C31.1088 0.847636 31.2131 0.647962 31.3484 0.488224C31.486 0.326266 31.6513 0.204243 31.8443 0.122155C32.0395 0.0400674 32.258 -0.000976562 32.4999 -0.000976562C32.7439 -0.000976562 32.9636 0.0400674 33.1588 0.122155C33.354 0.204243 33.5193 0.326266 33.6547 0.488224C33.7922 0.647962 33.8976 0.847636 33.9708 1.08724C34.044 1.32463 34.0806 1.59974 34.0806 1.91256V3.07067ZM31.7245 2.76783L33.2753 1.61305C33.2575 1.28248 33.1843 1.03844 33.0556 0.880915C32.9292 0.721176 32.7439 0.641307 32.4999 0.641307C32.2403 0.641307 32.0462 0.733378 31.9175 0.917522C31.7888 1.10167 31.7245 1.38454 31.7245 1.76613V2.76783ZM33.2819 2.23869L31.7311 3.39347C31.7711 4.02799 32.0295 4.34525 32.5065 4.34525C33.0235 4.34525 33.2819 3.96698 33.2819 3.21044V2.23869Z" fill="#151816"/>
<path d="M27.8711 4.43897C27.8711 4.36132 27.8833 4.2881 27.9077 4.21933C27.9343 4.15055 27.972 4.09176 28.0208 4.04295C28.0697 3.99192 28.1296 3.95199 28.2006 3.92315C28.2738 3.8943 28.357 3.87988 28.4501 3.87988C28.5433 3.87988 28.6254 3.8943 28.6964 3.92315C28.7696 3.95199 28.8306 3.99192 28.8794 4.04295C28.9305 4.09176 28.9682 4.15055 28.9926 4.21933C29.0192 4.2881 29.0325 4.36132 29.0325 4.43897C29.0325 4.51662 29.0192 4.58872 28.9926 4.65528C28.9682 4.71962 28.9305 4.7762 28.8794 4.825C28.8306 4.87381 28.7696 4.91153 28.6964 4.93815C28.6254 4.96699 28.5433 4.98142 28.4501 4.98142C28.357 4.98142 28.2738 4.96699 28.2006 4.93815C28.1296 4.91153 28.0697 4.87381 28.0208 4.825C27.972 4.7762 27.9343 4.71962 27.9077 4.65528C27.8833 4.58872 27.8711 4.51662 27.8711 4.43897Z" fill="#151816"/>
<path d="M25.8951 3.07067C25.8951 3.38349 25.8585 3.6597 25.7853 3.89931C25.7143 4.1367 25.6111 4.33638 25.4758 4.49833C25.3404 4.65807 25.1751 4.77899 24.9799 4.86107C24.7847 4.94316 24.565 4.98421 24.321 4.98421C24.0792 4.98421 23.8606 4.94316 23.6654 4.86107C23.4702 4.77899 23.3038 4.65807 23.1662 4.49833C23.0309 4.33638 22.9255 4.1367 22.8501 3.89931C22.7768 3.6597 22.7402 3.38349 22.7402 3.07067V1.91256C22.7402 1.59974 22.7768 1.32463 22.8501 1.08724C22.9233 0.847636 23.0275 0.647962 23.1629 0.488224C23.3004 0.326266 23.4657 0.204243 23.6587 0.122155C23.854 0.0400674 24.0725 -0.000976562 24.3143 -0.000976562C24.5584 -0.000976562 24.778 0.0400674 24.9733 0.122155C25.1685 0.204243 25.3338 0.326266 25.4691 0.488224C25.6067 0.647962 25.712 0.847636 25.7853 1.08724C25.8585 1.32463 25.8951 1.59974 25.8951 1.91256V3.07067ZM23.5389 2.76783L25.0897 1.61305C25.072 1.28248 24.9988 1.03844 24.8701 0.880915C24.7436 0.721176 24.5584 0.641307 24.3143 0.641307C24.0548 0.641307 23.8606 0.733378 23.7319 0.917522C23.6033 1.10167 23.5389 1.38454 23.5389 1.76613V2.76783ZM25.0964 2.23869L23.5456 3.39347C23.5855 4.02799 23.844 4.34525 24.321 4.34525C24.8379 4.34525 25.0964 3.96698 25.0964 3.21044V2.23869Z" fill="#151816"/>
<path d="M19.3422 4.25598C19.6306 4.25598 19.8724 4.2227 20.0676 4.15614C20.2651 4.08736 20.4248 3.99307 20.5469 3.87327C20.6689 3.75346 20.7587 3.61258 20.8164 3.45063C20.8763 3.28645 20.914 3.10896 20.9296 2.91816C20.8808 2.97363 20.8242 3.02577 20.7598 3.07457C20.6977 3.12117 20.6267 3.16332 20.5469 3.20103C20.4692 3.23653 20.3827 3.26537 20.2873 3.28756C20.1941 3.30753 20.0909 3.31751 19.9778 3.31751C19.7404 3.31751 19.5341 3.27314 19.3588 3.1844C19.1835 3.09343 19.0382 2.97363 18.9229 2.82498C18.8075 2.67412 18.721 2.50107 18.6633 2.30583C18.6078 2.11059 18.5801 1.90648 18.5801 1.6935C18.5801 1.46055 18.6145 1.24202 18.6832 1.0379C18.752 0.831575 18.853 0.651869 18.9861 0.498786C19.1192 0.345703 19.2823 0.224789 19.4753 0.136045C19.6705 0.0473016 19.8924 0.00292969 20.1409 0.00292969C20.4093 0.00292969 20.6423 0.056176 20.8397 0.162669C21.0394 0.269161 21.2047 0.41226 21.3356 0.591967C21.4687 0.771673 21.5674 0.98133 21.6318 1.22094C21.6983 1.45833 21.7316 1.70903 21.7316 1.97304V2.23262C21.7316 2.46335 21.7161 2.69076 21.685 2.91484C21.6562 3.1367 21.6051 3.34857 21.5319 3.55046C21.4609 3.75014 21.3655 3.93428 21.2457 4.10289C21.1281 4.27151 20.9806 4.41793 20.8031 4.54218C20.6278 4.6642 20.4193 4.76071 20.1775 4.8317C19.9379 4.90048 19.6605 4.93487 19.3455 4.93487H19.2823V4.25598H19.3422ZM20.1409 2.68854C20.2318 2.68854 20.3183 2.67412 20.4004 2.64528C20.4847 2.61643 20.5613 2.5765 20.6301 2.52547C20.6988 2.47444 20.7598 2.41343 20.8131 2.34244C20.8663 2.27144 20.9085 2.19379 20.9396 2.10949V1.84658C20.9396 1.65135 20.9174 1.4794 20.873 1.33076C20.8308 1.17989 20.7732 1.05454 20.6999 0.954707C20.6267 0.852652 20.5413 0.77611 20.4437 0.725082C20.3483 0.674055 20.2474 0.648541 20.1409 0.648541C20.0166 0.648541 19.9068 0.675164 19.8114 0.72841C19.716 0.781657 19.635 0.85487 19.5685 0.948051C19.5041 1.03901 19.4542 1.14662 19.4187 1.27086C19.3854 1.3951 19.3688 1.52821 19.3688 1.6702C19.3688 1.80332 19.3843 1.93089 19.4154 2.05291C19.4464 2.17493 19.493 2.28365 19.5552 2.37905C19.6195 2.47223 19.7005 2.54766 19.7981 2.60534C19.8957 2.66081 20.01 2.68854 20.1409 2.68854Z" fill="#151816"/>
<path d="M0.378797 10.0608L4.60265 6.98594C5.19125 6.55746 6 6.99537 6 7.74255V13.8922C6 14.6394 5.19125 15.0773 4.60265 14.6488L0.378796 11.574C-0.126266 11.2063 -0.126265 10.4284 0.378797 10.0608Z" fill="#A83C2E"/>
</svg>
