<svg width="41" height="15" viewBox="0 0 41 15" fill="none" xmlns="http://www.w3.org/2000/svg">
<path d="M23.3853 11.8285H21.3919V13.3494H23.7247V14.0017H20.5898V9.15625H23.7014V9.81517H21.3919V11.1829H23.3853V11.8285Z" fill="#151816"/>
<path d="M16.5605 9.15625H19.4425V9.8185H18.3942V13.3427H19.4425V14.0017H16.5605V13.3427H17.5855V9.8185H16.5605V9.15625Z" fill="#151816"/>
<path d="M40.0719 0.511946L38.1317 4.91475H37.2931L39.2333 0.731587H36.7207V0.0693359H40.0719V0.511946Z" fill="#151816"/>
<path d="M35.9576 3.07067C35.9576 3.38349 35.921 3.6597 35.8478 3.89931C35.7768 4.1367 35.6736 4.33638 35.5383 4.49833C35.4029 4.65807 35.2376 4.77899 35.0424 4.86107C34.8472 4.94316 34.6275 4.98421 34.3835 4.98421C34.1417 4.98421 33.9231 4.94316 33.7279 4.86107C33.5327 4.77899 33.3663 4.65807 33.2287 4.49833C33.0934 4.33638 32.988 4.1367 32.9126 3.89931C32.8393 3.6597 32.8027 3.38349 32.8027 3.07067V1.91256C32.8027 1.59974 32.8393 1.32463 32.9126 1.08724C32.9858 0.847636 33.09 0.647962 33.2254 0.488224C33.3629 0.326266 33.5282 0.204243 33.7212 0.122155C33.9165 0.0400674 34.135 -0.000976562 34.3768 -0.000976562C34.6209 -0.000976562 34.8405 0.0400674 35.0358 0.122155C35.231 0.204243 35.3963 0.326266 35.5316 0.488224C35.6692 0.647962 35.7745 0.847636 35.8478 1.08724C35.921 1.32463 35.9576 1.59974 35.9576 1.91256V3.07067ZM33.6014 2.76783L35.1522 1.61305C35.1345 1.28248 35.0613 1.03844 34.9326 0.880915C34.8061 0.721176 34.6209 0.641307 34.3768 0.641307C34.1173 0.641307 33.9231 0.733378 33.7944 0.917522C33.6658 1.10167 33.6014 1.38454 33.6014 1.76613V2.76783ZM35.1589 2.23869L33.6081 3.39347C33.648 4.02799 33.9065 4.34525 34.3835 4.34525C34.9004 4.34525 35.1589 3.96698 35.1589 3.21044V2.23869Z" fill="#151816"/>
<path d="M29.5811 2.13278H30.0569C30.1967 2.13278 30.3187 2.11503 30.423 2.07953C30.5273 2.04182 30.6138 1.98968 30.6826 1.92312C30.7514 1.85657 30.8024 1.77781 30.8357 1.68684C30.8712 1.59366 30.8889 1.49161 30.8889 1.38068C30.8889 1.14551 30.8268 0.964691 30.7026 0.838231C30.5805 0.709552 30.3953 0.645213 30.1468 0.645213C30.0381 0.645213 29.9371 0.661852 29.844 0.695131C29.753 0.726192 29.6731 0.771673 29.6043 0.831575C29.5378 0.891477 29.4857 0.963581 29.4479 1.04789C29.4102 1.13219 29.3914 1.22759 29.3914 1.33409H28.596C28.596 1.14329 28.6337 0.966909 28.7091 0.804952C28.7868 0.642994 28.8933 0.503223 29.0286 0.385637C29.1662 0.265833 29.3292 0.172652 29.5178 0.106094C29.7064 0.0373179 29.9127 0.00292969 30.1368 0.00292969C30.3653 0.00292969 30.575 0.0328807 30.7658 0.0927828C30.9566 0.150466 31.1196 0.236991 31.255 0.352358C31.3903 0.467725 31.4957 0.611934 31.5711 0.784984C31.6466 0.955816 31.6843 1.15438 31.6843 1.38068C31.6843 1.47608 31.6699 1.57369 31.641 1.67353C31.6122 1.77337 31.5678 1.86988 31.5079 1.96306C31.4502 2.05624 31.3759 2.14387 31.2849 2.22596C31.1962 2.30583 31.0908 2.3735 30.9688 2.42896C31.1152 2.47999 31.2383 2.54544 31.3382 2.62531C31.438 2.70518 31.519 2.79503 31.5811 2.89487C31.6432 2.99249 31.6876 3.09787 31.7142 3.21102C31.7409 3.32417 31.7542 3.43953 31.7542 3.55712C31.7542 3.78342 31.7131 3.98531 31.631 4.1628C31.5489 4.34028 31.4347 4.49004 31.2883 4.61206C31.1441 4.73186 30.9732 4.82394 30.7758 4.88828C30.5783 4.9504 30.3653 4.98146 30.1368 4.98146C29.926 4.98146 29.7253 4.95261 29.5345 4.89493C29.3437 4.83725 29.1751 4.75183 29.0286 4.63868C28.8844 4.52332 28.769 4.38133 28.6825 4.21271C28.596 4.04188 28.5527 3.84443 28.5527 3.62035H29.3481C29.3481 3.72684 29.367 3.82557 29.4047 3.91653C29.4424 4.00527 29.4956 4.08182 29.5644 4.14616C29.6354 4.20828 29.7197 4.25709 29.8173 4.29258C29.915 4.32808 30.0248 4.34583 30.1468 4.34583C30.3997 4.34583 30.5983 4.27927 30.7425 4.14616C30.8889 4.01082 30.9621 3.81558 30.9621 3.56045C30.9621 3.42068 30.9411 3.30087 30.8989 3.20103C30.8567 3.09898 30.7957 3.01578 30.7159 2.95144C30.6382 2.88488 30.5439 2.83608 30.433 2.80502C30.3221 2.77395 30.1967 2.75842 30.0569 2.75842H29.5811V2.13278Z" fill="#151816"/>
<path d="M25.6543 4.43897C25.6543 4.36132 25.6665 4.2881 25.6909 4.21933C25.7175 4.15055 25.7552 4.09176 25.8041 4.04295C25.8529 3.99192 25.9128 3.95199 25.9838 3.92315C26.057 3.8943 26.1402 3.87988 26.2334 3.87988C26.3265 3.87988 26.4086 3.8943 26.4796 3.92315C26.5528 3.95199 26.6138 3.99192 26.6626 4.04295C26.7137 4.09176 26.7514 4.15055 26.7758 4.21933C26.8024 4.2881 26.8157 4.36132 26.8157 4.43897C26.8157 4.51662 26.8024 4.58872 26.7758 4.65528C26.7514 4.71962 26.7137 4.7762 26.6626 4.825C26.6138 4.87381 26.5528 4.91153 26.4796 4.93815C26.4086 4.96699 26.3265 4.98142 26.2334 4.98142C26.1402 4.98142 26.057 4.96699 25.9838 4.93815C25.9128 4.91153 25.8529 4.87381 25.8041 4.825C25.7552 4.7762 25.7175 4.71962 25.6909 4.65528C25.6665 4.58872 25.6543 4.51662 25.6543 4.43897Z" fill="#151816"/>
<path d="M21.3955 2.13278H21.8714C22.0112 2.13278 22.1332 2.11503 22.2375 2.07953C22.3417 2.04182 22.4283 1.98968 22.497 1.92312C22.5658 1.85657 22.6168 1.77781 22.6501 1.68684C22.6856 1.59366 22.7034 1.49161 22.7034 1.38068C22.7034 1.14551 22.6412 0.964691 22.517 0.838231C22.395 0.709552 22.2097 0.645213 21.9612 0.645213C21.8525 0.645213 21.7516 0.661852 21.6584 0.695131C21.5674 0.726192 21.4876 0.771673 21.4188 0.831575C21.3522 0.891477 21.3001 0.963581 21.2624 1.04789C21.2247 1.13219 21.2058 1.22759 21.2058 1.33409H20.4105C20.4105 1.14329 20.4482 0.966909 20.5236 0.804952C20.6012 0.642994 20.7077 0.503223 20.8431 0.385637C20.9806 0.265833 21.1437 0.172652 21.3323 0.106094C21.5209 0.0373179 21.7272 0.00292969 21.9513 0.00292969C22.1798 0.00292969 22.3894 0.0328807 22.5802 0.0927828C22.771 0.150466 22.9341 0.236991 23.0694 0.352358C23.2048 0.467725 23.3102 0.611934 23.3856 0.784984C23.461 0.955816 23.4987 1.15438 23.4987 1.38068C23.4987 1.47608 23.4843 1.57369 23.4555 1.67353C23.4266 1.77337 23.3823 1.86988 23.3224 1.96306C23.2647 2.05624 23.1903 2.14387 23.0994 2.22596C23.0106 2.30583 22.9053 2.3735 22.7832 2.42896C22.9297 2.47999 23.0528 2.54544 23.1526 2.62531C23.2525 2.70518 23.3334 2.79503 23.3956 2.89487C23.4577 2.99249 23.5021 3.09787 23.5287 3.21102C23.5553 3.32417 23.5686 3.43953 23.5686 3.55712C23.5686 3.78342 23.5276 3.98531 23.4455 4.1628C23.3634 4.34028 23.2491 4.49004 23.1027 4.61206C22.9585 4.73186 22.7877 4.82394 22.5902 4.88828C22.3928 4.9504 22.1798 4.98146 21.9513 4.98146C21.7405 4.98146 21.5397 4.95261 21.3489 4.89493C21.1581 4.83725 20.9895 4.75183 20.8431 4.63868C20.6989 4.52332 20.5835 4.38133 20.497 4.21271C20.4105 4.04188 20.3672 3.84443 20.3672 3.62035H21.1626C21.1626 3.72684 21.1814 3.82557 21.2191 3.91653C21.2568 4.00527 21.3101 4.08182 21.3789 4.14616C21.4499 4.20828 21.5342 4.25709 21.6318 4.29258C21.7294 4.32808 21.8392 4.34583 21.9612 4.34583C22.2142 4.34583 22.4127 4.27927 22.5569 4.14616C22.7034 4.01082 22.7766 3.81558 22.7766 3.56045C22.7766 3.42068 22.7555 3.30087 22.7134 3.20103C22.6712 3.09898 22.6102 3.01578 22.5303 2.95144C22.4527 2.88488 22.3584 2.83608 22.2474 2.80502C22.1365 2.77395 22.0112 2.75842 21.8714 2.75842H21.3955V2.13278Z" fill="#151816"/>
<path d="M19.4953 1.3474C19.4953 1.58479 19.4342 1.79666 19.3122 1.98303C19.1902 2.16717 19.0238 2.31249 18.813 2.41898C18.9328 2.47444 19.0404 2.54211 19.1358 2.62198C19.2335 2.70185 19.3167 2.7917 19.3854 2.89154C19.4542 2.99138 19.5063 3.1012 19.5418 3.221C19.5796 3.33859 19.5984 3.46394 19.5984 3.59705C19.5984 3.82113 19.5574 4.0197 19.4753 4.19275C19.3932 4.3658 19.2812 4.51111 19.1392 4.6287C18.9972 4.74407 18.8297 4.8317 18.6367 4.8916C18.4459 4.95151 18.2406 4.98146 18.021 4.98146C17.7969 4.98146 17.5873 4.95151 17.392 4.8916C17.199 4.8317 17.0315 4.74407 16.8895 4.6287C16.7475 4.51111 16.6355 4.3658 16.5534 4.19275C16.4735 4.0197 16.4336 3.82113 16.4336 3.59705C16.4336 3.46394 16.4513 3.33748 16.4868 3.21767C16.5246 3.09787 16.5767 2.98805 16.6433 2.88821C16.712 2.78838 16.7941 2.69852 16.8895 2.61865C16.9871 2.53878 17.0958 2.47223 17.2156 2.41898C17.0071 2.31249 16.8429 2.16717 16.7231 1.98303C16.6033 1.79666 16.5434 1.58479 16.5434 1.3474C16.5434 1.13219 16.58 0.941395 16.6532 0.775001C16.7264 0.606387 16.8274 0.465507 16.9561 0.352358C17.087 0.236991 17.2423 0.150466 17.422 0.0927828C17.6017 0.0328807 17.798 0.00292969 18.011 0.00292969C18.224 0.00292969 18.4203 0.0328807 18.6001 0.0927828C18.782 0.150466 18.9395 0.236991 19.0726 0.352358C19.2057 0.465507 19.3089 0.606387 19.3821 0.775001C19.4575 0.941395 19.4953 1.13219 19.4953 1.3474ZM18.8031 3.55712C18.8031 3.4351 18.7842 3.32417 18.7465 3.22433C18.7088 3.12449 18.6555 3.03908 18.5867 2.96808C18.518 2.89709 18.4348 2.84273 18.3371 2.80502C18.2417 2.76508 18.1341 2.74511 18.0143 2.74511C17.8945 2.74511 17.7858 2.76508 17.6882 2.80502C17.5928 2.84273 17.5107 2.89709 17.4419 2.96808C17.3754 3.03908 17.3233 3.12449 17.2855 3.22433C17.25 3.32417 17.2323 3.4351 17.2323 3.55712C17.2323 3.8056 17.3022 3.99973 17.4419 4.1395C17.5817 4.27705 17.7747 4.34583 18.021 4.34583C18.1364 4.34583 18.2417 4.32808 18.3371 4.29258C18.4348 4.25709 18.518 4.20495 18.5867 4.13617C18.6555 4.0674 18.7088 3.98531 18.7465 3.88991C18.7842 3.79229 18.8031 3.68136 18.8031 3.55712ZM18.6999 1.37402C18.6999 1.26753 18.6832 1.16991 18.65 1.08117C18.6167 0.990204 18.5701 0.912554 18.5102 0.848214C18.4503 0.783875 18.3771 0.733957 18.2906 0.698459C18.2063 0.662962 18.1131 0.645213 18.011 0.645213C17.9067 0.645213 17.8125 0.661852 17.7281 0.695131C17.6461 0.72841 17.5762 0.777219 17.5185 0.841559C17.4608 0.903679 17.4164 0.980221 17.3854 1.07118C17.3543 1.15993 17.3388 1.26087 17.3388 1.37402C17.3388 1.48495 17.3543 1.5859 17.3854 1.67686C17.4186 1.7656 17.4641 1.84214 17.5218 1.90648C17.5817 1.9686 17.6538 2.01741 17.7381 2.05291C17.8224 2.08841 17.9167 2.10616 18.021 2.10616C18.1231 2.10616 18.2162 2.08841 18.3005 2.05291C18.3848 2.01741 18.4558 1.9686 18.5135 1.90648C18.5734 1.84214 18.6189 1.7656 18.65 1.67686C18.6832 1.5859 18.6999 1.48495 18.6999 1.37402Z" fill="#151816"/>
<path d="M0.378797 10.0608L4.60265 6.98594C5.19125 6.55746 6 6.99537 6 7.74255V13.8922C6 14.6394 5.19125 15.0773 4.60265 14.6488L0.378796 11.574C-0.126266 11.2063 -0.126265 10.4284 0.378797 10.0608Z" fill="#151816"/>
</svg>
